<svg width="1200" height="534" viewBox="0 0 1200 534" fill="none" xmlns="http://www.w3.org/2000/svg">
<g clip-path="url(#clip0_1_10873)">
<g clip-path="url(#clip1_1_10873)">
<g clip-path="url(#clip2_1_10873)">
<g opacity="0.66">
<path d="M-261.859 182.766C-115.999 182.766 -42.897 8.05262 101.93 9.2611C222.85 10.4696 368.538 194.506 444.564 257.347C508.378 310.175 582.34 365.939 664.558 356.616C727.51 349.71 779.97 305.514 821.77 257.865C876.64 195.369 920.84 122.687 984.31 68.8224C1047.78 14.9582 1141.87 -20.2606 1217.9 15.9941C1266.06 38.9554 1297.71 87.8129 1334.52 125.103C1371.32 162.221 1400.22 182.938 1472.81 182.938" stroke="url(#paint0_linear_1_10873)" stroke-width="0.75" stroke-miterlimit="10"/>
<path d="M-262.375 182.713C-118.579 182.713 -46.337 18.0133 95.051 21.6388C213.39 25.2642 355.294 204.811 431.148 266.617C494.101 318.237 566.859 372.274 647.53 363.469C709.967 356.909 762.43 314.093 804.4 267.48C859.96 205.847 904.85 133.683 967.63 79.3008C1030.41 24.9187 1127.94 -17.8962 1207.23 16.632C1258.32 38.9028 1291.34 94.8386 1330.73 130.921C1369.43 166.485 1398.16 182.713 1472.64 182.713" stroke="url(#paint1_linear_1_10873)" stroke-width="0.75" stroke-miterlimit="10"/>
<path d="M-262.719 182.802C-121.159 182.802 -49.433 28.115 88.171 34.3301C203.758 40.3726 342.222 215.086 417.732 276.374C479.825 326.612 551.379 379.095 630.673 370.809C692.767 364.593 744.88 323.159 787.2 277.582C843.44 216.985 888.85 145.166 951.12 90.0934C1013.21 35.1933 1114.35 -15.2179 1196.74 17.4113C1250.75 38.9915 1285.15 102.006 1327.12 136.879C1367.89 170.717 1396.09 182.802 1472.64 182.802" stroke="url(#paint2_linear_1_10873)" stroke-width="0.75" stroke-miterlimit="10"/>
<path d="M-263.231 182.773C-123.735 182.773 -52.869 38.2716 81.295 46.7311C194.302 55.3631 328.982 225.242 404.492 285.667C465.725 334.697 536.075 385.281 613.993 377.685C675.571 371.642 727.69 331.762 770.17 287.221C827.11 227.659 873.2 156.186 934.78 100.595C996.36 45.0045 1100.77 -13.0032 1186.42 18.0723C1243.53 38.7893 1279.14 109.227 1323.68 142.72C1366.34 174.831 1394.21 182.772 1472.81 182.772" stroke="url(#paint3_linear_1_10873)" stroke-width="0.75" stroke-miterlimit="10"/>
<path d="M-263.578 182.75C-126.146 182.75 -55.9691 48.2619 74.5829 59.3109C185.01 70.36 315.905 235.578 391.244 295.139C451.617 342.961 520.591 391.819 597.133 384.74C658.195 379.043 710.312 340.544 752.97 297.038C810.59 238.34 857.2 167.384 918.27 111.276C979.16 55.1674 1087.17 -10.609 1175.93 18.9127C1236.13 38.9391 1272.94 116.455 1319.9 148.739C1364.45 179.297 1391.97 182.75 1472.64 182.75" stroke="url(#paint4_linear_1_10873)" stroke-width="0.75" stroke-miterlimit="10"/>
<path d="M-264.094 182.755C-128.898 182.755 -59.408 58.2803 67.531 71.7463C175.378 85.2124 302.662 245.769 377.656 304.64C436.997 351.08 504.939 398.211 580.105 391.824C640.651 386.472 692.768 349.354 735.6 306.884C793.91 249.222 841.04 178.439 901.41 121.985C961.78 65.5311 1073.24 -8.18692 1165.09 19.6084C1228.22 38.7716 1266.4 123.711 1315.94 154.614C1362.38 183.445 1389.56 182.755 1472.29 182.755" stroke="url(#paint5_linear_1_10873)" stroke-width="0.75" stroke-miterlimit="10"/>
<path d="M-264.441 182.802C-131.31 182.802 -62.508 68.5134 60.819 84.3964C166.086 100.279 289.586 256.175 364.408 314.182C422.889 359.414 489.627 404.819 563.245 398.777C623.275 393.943 675.392 358.033 718.565 316.599C777.73 259.973 825.38 189.535 885.07 132.391C944.92 75.2464 1059.82 -6.0678 1154.77 20.1737C1220.99 38.4737 1260.38 130.837 1312.5 160.359C1360.66 187.636 1387.66 182.629 1472.46 182.629" stroke="url(#paint6_linear_1_10873)" stroke-width="0.75" stroke-miterlimit="10"/>
<path d="M-264.945 182.776C-133.878 182.776 -65.936 78.5006 53.951 96.8006C156.466 115.101 276.353 266.507 351.003 323.651C408.625 367.675 474.159 411.353 546.401 405.829C606.086 401.34 658.032 366.812 701.377 326.414C761.23 270.823 809.4 200.731 868.57 143.068C927.73 85.4061 1046.42 -3.67685 1144.29 21.0109C1213.61 38.4477 1254.03 138.234 1308.9 166.375C1358.95 192.099 1385.61 182.776 1472.47 182.776" stroke="url(#paint7_linear_1_10873)" stroke-width="0.75" stroke-miterlimit="10"/>
<path d="M-265.465 182.742C-136.633 182.742 -69.208 88.6522 47.068 109.369C147.002 130.086 263.105 276.831 337.755 333.113C394.345 375.928 458.847 417.88 529.712 412.873C588.882 408.73 640.827 375.582 684.345 336.393C745.06 281.665 793.74 212.091 852.22 153.911C910.7 95.7305 1033 -1.29404 1133.96 21.8399C1206.38 38.4135 1247.83 145.624 1305.28 172.383C1357.05 196.553 1383.54 182.742 1472.47 182.742" stroke="url(#paint8_linear_1_10873)" stroke-width="0.75" stroke-miterlimit="10"/>
<path d="M-265.809 182.847C-139.041 182.847 -72.475 98.771 40.188 122.077C137.542 145.384 249.861 287.295 324.339 342.713C380.069 384.32 443.366 424.545 512.684 420.057C571.338 416.259 623.283 384.493 666.973 346.339C728.38 292.647 777.57 223.418 835.54 164.72C893.5 106.022 1019.24 1.05579 1123.3 22.8086C1198.81 38.519 1241.47 153.153 1301.5 178.358C1355.16 200.975 1381.48 182.847 1472.3 182.847" stroke="url(#paint9_linear_1_10873)" stroke-width="0.75" stroke-miterlimit="10"/>
<path d="M-266.328 182.81C-141.625 182.81 -75.747 108.747 33.304 134.47C128.078 160.194 236.785 297.444 310.919 352.171C365.789 392.569 427.882 431.069 495.824 427.098C553.962 423.645 605.907 393.26 649.769 356.142C711.862 303.486 761.74 234.602 819.02 175.214C876.47 115.998 1005.65 3.09031 1112.8 23.462C1191.41 38.3092 1235.1 160.367 1297.88 184.191C1353.27 205.253 1379.41 182.81 1472.47 182.81" stroke="url(#paint10_linear_1_10873)" stroke-width="0.75" stroke-miterlimit="10"/>
<path d="M-266.676 182.701C-144.209 182.701 -79.019 118.823 26.592 146.964C118.787 175.104 223.709 307.693 297.671 361.557C351.509 400.747 412.57 437.519 479.136 434.067C536.93 430.959 588.703 401.955 632.736 365.873C695.69 314.253 745.92 245.715 802.68 185.808C859.44 126.074 992.4 5.22489 1102.48 24.0429C1184.01 38.0268 1228.9 167.681 1294.44 189.952C1351.54 209.46 1377.52 182.7 1472.63 182.7" stroke="url(#paint11_linear_1_10873)" stroke-width="0.75" stroke-miterlimit="10"/>
<path d="M-267.184 182.74C-146.78 182.74 -82.279 128.876 19.548 159.433C108.99 189.991 210.301 318.091 284.091 371.091C337.069 409.073 396.926 444.119 461.944 441.011C519.221 438.249 570.995 410.627 615.2 375.58C679.014 324.996 729.58 256.63 785.83 196.378C842.07 136.126 978.47 7.33573 1091.65 24.7725C1176.28 37.7206 1222.2 174.971 1290.32 195.86C1349.32 213.988 1374.94 182.567 1472.13 182.567" stroke="url(#paint12_linear_1_10873)" stroke-width="0.75" stroke-miterlimit="10"/>
<path d="M-267.531 182.763C-149.192 182.763 -85.55 138.912 12.836 172.059C99.699 205.034 197.225 328.472 271.015 380.61C322.961 417.383 381.786 450.703 445.428 448.113C502.189 445.869 553.963 419.455 598.34 385.444C662.842 335.896 714.099 267.875 769.66 207.105C825.39 146.163 965.23 9.60347 1081.5 25.6591C1169.22 37.744 1216.18 182.59 1287.05 201.926C1347.76 218.5 1373.22 182.763 1472.47 182.763" stroke="url(#paint13_linear_1_10873)" stroke-width="0.75" stroke-miterlimit="10"/>
<path d="M-268.051 182.708C-151.948 182.708 -88.822 149.043 5.95297 184.435C90.235 219.826 183.977 338.604 257.595 390.051C308.681 425.615 366.302 457.209 428.396 455.137C484.813 453.238 536.587 428.377 581.136 395.23C646.498 346.718 698.099 279.042 753.14 217.582C808.18 156.122 951.81 11.6206 1071.01 26.2951C1161.82 37.3442 1209.98 189.959 1283.43 207.741C1345.87 222.934 1371.15 182.708 1472.46 182.708" stroke="url(#paint14_linear_1_10873)" stroke-width="0.75" stroke-miterlimit="10"/>
<path d="M-268.383 182.777C-154.344 182.777 -92.078 159.126 -0.744019 197.107C80.958 235.088 170.917 349.204 244.363 399.615C294.416 433.971 351.006 464.01 411.723 462.284C467.625 460.73 519.398 437.251 564.12 405.14C630.341 357.663 682.459 290.333 736.81 228.355C791.34 166.376 938.4 13.9339 1060.7 27.0546C1154.61 37.2405 1203.8 197.452 1280 213.68C1344.16 227.491 1369.27 182.777 1472.65 182.777" stroke="url(#paint15_linear_1_10873)" stroke-width="0.75" stroke-miterlimit="10"/>
<path d="M-268.902 182.744C-156.927 182.744 -95.35 169.278 -7.79904 209.504C71.323 249.902 157.497 359.356 230.771 408.905C279.964 442.052 335.35 470.365 394.692 469.156C450.077 467.948 501.85 445.85 546.744 414.774C613.653 368.334 666.287 301.349 720.124 238.853C773.96 176.356 924.64 15.8 1050.03 27.7122C1147.04 36.8622 1197.27 204.842 1276.04 219.517C1342.09 231.774 1366.86 182.571 1472.3 182.571" stroke="url(#paint16_linear_1_10873)" stroke-width="0.75" stroke-miterlimit="10"/>
<path d="M-269.25 182.781C-159.511 182.781 -98.621 179.328 -14.511 222.143C61.859 264.958 144.421 369.924 217.695 418.609C265.856 450.548 320.21 477.134 378.003 476.444C432.873 475.753 484.646 455.036 529.711 424.997C597.481 379.765 650.459 312.952 703.78 249.938C757.1 186.924 911.39 18.4258 1039.71 28.957C1139.81 37.0711 1191.07 212.82 1272.6 225.941C1340.37 236.817 1365.14 183.126 1472.47 183.126" stroke="url(#paint17_linear_1_10873)" stroke-width="0.75" stroke-miterlimit="10"/>
<path d="M-269.77 182.823C-162.095 182.823 -101.893 189.384 -21.395 234.788C52.395 280.02 131.173 380.325 204.275 428.147C251.404 459.05 304.726 483.047 361.143 483.565C415.669 484.083 467.442 463.884 512.507 434.88C581.137 390.684 634.631 324.217 687.264 260.512C739.9 196.98 897.8 20.3677 1029.21 29.5177C1132.41 36.7687 1184.7 220.114 1268.98 231.681C1338.47 241.176 1363.07 182.996 1472.47 182.996" stroke="url(#paint18_linear_1_10873)" stroke-width="0.75" stroke-miterlimit="10"/>
<path d="M-270.289 182.742C-164.678 182.742 -105.337 199.489 -28.279 247.138C42.931 294.787 117.753 390.603 190.855 437.561C237.125 467.256 289.242 489.526 344.111 490.39C398.121 491.253 449.894 472.607 495.132 444.467C564.622 401.306 618.459 335.012 670.576 270.962C722.694 206.912 884.03 22.358 1018.54 30.1269C1124.84 36.342 1178.33 227.456 1265.2 237.47C1336.58 245.584 1360.83 182.742 1472.29 182.742" stroke="url(#paint19_linear_1_10873)" stroke-width="0.75" stroke-miterlimit="10"/>
<path d="M-270.629 182.801C-167.254 182.801 -108.428 209.561 -35.155 259.799C33.475 309.865 104.513 401.193 177.443 447.115C222.681 475.601 273.766 497.009 327.259 497.527C380.753 498.045 432.526 481.471 477.935 454.366C548.285 412.414 602.639 346.293 654.068 281.725C705.498 217.157 870.45 24.4886 1008.05 31.049C1117.28 36.2282 1171.97 235.284 1261.42 243.571C1334.52 250.304 1358.6 182.974 1472.12 182.974" stroke="url(#paint20_linear_1_10873)" stroke-width="0.75" stroke-miterlimit="10"/>
<path d="M-271.145 182.768C-169.834 182.768 -111.868 219.714 -42.034 272.197C24.015 324.852 91.269 411.346 164.027 456.405C208.232 483.855 258.286 503.536 310.403 504.399C363.38 505.435 415.154 490.243 460.907 464.001C532.117 423.085 586.815 357.309 637.728 292.223C688.641 226.964 857.03 26.3548 997.73 31.534C1110.05 35.6774 1165.78 242.502 1257.98 249.235C1332.97 254.587 1356.71 182.768 1472.47 182.768" stroke="url(#paint21_linear_1_10873)" stroke-width="0.75" stroke-miterlimit="10"/>
<path d="M-271.488 182.873C-172.242 182.873 -114.964 229.831 -48.742 284.904C14.555 339.977 78.197 421.981 150.955 466.178C194.3 492.419 243.149 510.374 293.719 511.755C346.352 513.136 398.126 499.325 443.879 474.119C515.949 434.412 570.99 368.808 621.388 303.031C671.785 237.255 843.79 28.5315 987.41 32.5022C1102.83 35.6098 1159.76 250.376 1254.54 255.382C1331.25 259.353 1354.82 183.045 1472.64 183.045" stroke="url(#paint22_linear_1_10873)" stroke-width="0.75" stroke-miterlimit="10"/>
<path d="M-272 182.71C-174.989 182.71 -118.4 239.682 -55.79 297.172C4.92698 354.662 64.613 432.177 137.371 475.338C179.684 500.371 227.501 516.599 276.695 518.498C328.812 520.397 380.586 507.967 426.511 483.625C499.269 445.126 554.998 379.695 604.707 313.4C654.417 247.106 830.03 30.4405 976.75 33.0301C1095.26 35.1018 1153.23 257.637 1250.76 260.917C1329.36 263.679 1352.58 182.538 1472.47 182.538" stroke="url(#paint23_linear_1_10873)" stroke-width="0.75" stroke-miterlimit="10"/>
<path d="M-272.348 182.724C-177.401 182.724 -121.5 249.881 -62.502 309.788C-4.36403 369.695 51.365 442.895 124.123 485.019C165.404 509.016 212.189 523.691 260.007 525.763C311.608 528.18 363.553 517.13 409.479 493.651C483.269 456.361 539.17 391.102 588.363 324.29C637.557 257.478 816.61 32.5259 966.43 33.907C1088.04 34.7702 1147.21 265.592 1247.31 266.973C1327.64 268.527 1350.69 182.724 1472.64 182.724" stroke="url(#paint24_linear_1_10873)" stroke-width="0.75" stroke-miterlimit="10"/>
<path d="M-272.863 182.768C-179.981 182.768 -124.939 259.939 -69.382 322.263C-13.824 384.586 38.121 453.298 110.707 494.386C151.128 517.348 196.709 530.123 242.979 532.54C294.064 535.302 346.009 525.634 392.107 503.191C466.585 466.936 523.174 402.023 571.679 334.693C620.185 267.363 802.85 34.469 955.77 34.469C1080.47 34.469 1140.67 272.714 1243.36 272.714C1325.58 272.714 1348.45 182.596 1472.3 182.596" stroke="url(#paint25_linear_1_10873)" stroke-width="0.75" stroke-miterlimit="10"/>
</g>
</g>
</g>
</g>
<defs>
<linearGradient id="paint0_linear_1_10873" x1="132.686" y1="179.46" x2="946.2" y2="179.46" gradientUnits="userSpaceOnUse">
<stop stop-color="#FFD522"/>
<stop offset="0.0630095" stop-color="#FBCC30"/>
<stop offset="0.1817" stop-color="#EFB454"/>
<stop offset="0.3003" stop-color="#E2987F"/>
<stop offset="0.3384" stop-color="#E19485"/>
<stop offset="0.3876" stop-color="#DE8795"/>
<stop offset="0.4431" stop-color="#D973B0"/>
<stop offset="0.5026" stop-color="#D257D4"/>
<stop offset="0.5393" stop-color="#CD43EF"/>
<stop offset="0.5745" stop-color="#CD43EF"/>
<stop offset="0.8294" stop-color="#C62A97"/>
<stop offset="0.8472" stop-color="#C62A97"/>
<stop offset="0.8491" stop-color="#C72C95"/>
<stop offset="0.9231" stop-color="#E58658"/>
<stop offset="0.9751" stop-color="#F8BF31"/>
<stop offset="1" stop-color="#FFD522"/>
</linearGradient>
<linearGradient id="paint1_linear_1_10873" x1="132.248" y1="184.358" x2="945.92" y2="184.358" gradientUnits="userSpaceOnUse">
<stop stop-color="#FFD522"/>
<stop offset="0.0630095" stop-color="#FBCC30"/>
<stop offset="0.1817" stop-color="#EFB454"/>
<stop offset="0.3003" stop-color="#E2987F"/>
<stop offset="0.3384" stop-color="#E19485"/>
<stop offset="0.3876" stop-color="#DE8795"/>
<stop offset="0.4431" stop-color="#D973B0"/>
<stop offset="0.5026" stop-color="#D257D4"/>
<stop offset="0.5393" stop-color="#CD43EF"/>
<stop offset="0.5745" stop-color="#CD43EF"/>
<stop offset="0.8294" stop-color="#C62A97"/>
<stop offset="0.8472" stop-color="#C62A97"/>
<stop offset="0.8491" stop-color="#C72C95"/>
<stop offset="0.9231" stop-color="#E58658"/>
<stop offset="0.9751" stop-color="#F8BF31"/>
<stop offset="1" stop-color="#FFD522"/>
</linearGradient>
<linearGradient id="paint2_linear_1_10873" x1="131.983" y1="189.432" x2="945.81" y2="189.432" gradientUnits="userSpaceOnUse">
<stop stop-color="#FFD522"/>
<stop offset="0.0630095" stop-color="#FBCC30"/>
<stop offset="0.1817" stop-color="#EFB454"/>
<stop offset="0.3003" stop-color="#E2987F"/>
<stop offset="0.3384" stop-color="#E19485"/>
<stop offset="0.3876" stop-color="#DE8795"/>
<stop offset="0.4431" stop-color="#D973B0"/>
<stop offset="0.5026" stop-color="#D257D4"/>
<stop offset="0.5393" stop-color="#CD43EF"/>
<stop offset="0.5745" stop-color="#CD43EF"/>
<stop offset="0.8294" stop-color="#C62A97"/>
<stop offset="0.8472" stop-color="#C62A97"/>
<stop offset="0.8491" stop-color="#C72C95"/>
<stop offset="0.9231" stop-color="#E58658"/>
<stop offset="0.9751" stop-color="#F8BF31"/>
<stop offset="1" stop-color="#FFD522"/>
</linearGradient>
<linearGradient id="paint3_linear_1_10873" x1="131.628" y1="193.957" x2="945.78" y2="193.957" gradientUnits="userSpaceOnUse">
<stop stop-color="#FFD522"/>
<stop offset="0.0630095" stop-color="#FBCC30"/>
<stop offset="0.1817" stop-color="#EFB454"/>
<stop offset="0.3003" stop-color="#E2987F"/>
<stop offset="0.3384" stop-color="#E19485"/>
<stop offset="0.3876" stop-color="#DE8795"/>
<stop offset="0.4431" stop-color="#D973B0"/>
<stop offset="0.5026" stop-color="#D257D4"/>
<stop offset="0.5393" stop-color="#CD43EF"/>
<stop offset="0.5745" stop-color="#CD43EF"/>
<stop offset="0.8294" stop-color="#C62A97"/>
<stop offset="0.8472" stop-color="#C62A97"/>
<stop offset="0.8491" stop-color="#C72C95"/>
<stop offset="0.9231" stop-color="#E58658"/>
<stop offset="0.9751" stop-color="#F8BF31"/>
<stop offset="1" stop-color="#FFD522"/>
</linearGradient>
<linearGradient id="paint4_linear_1_10873" x1="131.319" y1="198.561" x2="945.55" y2="198.561" gradientUnits="userSpaceOnUse">
<stop stop-color="#FFD522"/>
<stop offset="0.0630095" stop-color="#FBCC30"/>
<stop offset="0.1817" stop-color="#EFB454"/>
<stop offset="0.3003" stop-color="#E2987F"/>
<stop offset="0.3384" stop-color="#E19485"/>
<stop offset="0.3876" stop-color="#DE8795"/>
<stop offset="0.4431" stop-color="#D973B0"/>
<stop offset="0.5026" stop-color="#D257D4"/>
<stop offset="0.5393" stop-color="#CD43EF"/>
<stop offset="0.5745" stop-color="#CD43EF"/>
<stop offset="0.8294" stop-color="#C62A97"/>
<stop offset="0.8472" stop-color="#C62A97"/>
<stop offset="0.8491" stop-color="#C72C95"/>
<stop offset="0.9231" stop-color="#E58658"/>
<stop offset="0.9751" stop-color="#F8BF31"/>
<stop offset="1" stop-color="#FFD522"/>
</linearGradient>
<linearGradient id="paint5_linear_1_10873" x1="130.843" y1="203.026" x2="945.16" y2="203.026" gradientUnits="userSpaceOnUse">
<stop stop-color="#FFD522"/>
<stop offset="0.0630095" stop-color="#FBCC30"/>
<stop offset="0.1817" stop-color="#EFB454"/>
<stop offset="0.3003" stop-color="#E2987F"/>
<stop offset="0.3384" stop-color="#E19485"/>
<stop offset="0.3876" stop-color="#DE8795"/>
<stop offset="0.4431" stop-color="#D973B0"/>
<stop offset="0.5026" stop-color="#D257D4"/>
<stop offset="0.5393" stop-color="#CD43EF"/>
<stop offset="0.5745" stop-color="#CD43EF"/>
<stop offset="0.8294" stop-color="#C62A97"/>
<stop offset="0.8472" stop-color="#C62A97"/>
<stop offset="0.8491" stop-color="#C72C95"/>
<stop offset="0.9231" stop-color="#E58658"/>
<stop offset="0.9751" stop-color="#F8BF31"/>
<stop offset="1" stop-color="#FFD522"/>
</linearGradient>
<linearGradient id="paint6_linear_1_10873" x1="130.612" y1="207.258" x2="945.17" y2="207.258" gradientUnits="userSpaceOnUse">
<stop stop-color="#FFD522"/>
<stop offset="0.0630095" stop-color="#FBCC30"/>
<stop offset="0.1817" stop-color="#EFB454"/>
<stop offset="0.3003" stop-color="#E2987F"/>
<stop offset="0.3384" stop-color="#E19485"/>
<stop offset="0.3876" stop-color="#DE8795"/>
<stop offset="0.4431" stop-color="#D973B0"/>
<stop offset="0.5026" stop-color="#D257D4"/>
<stop offset="0.5393" stop-color="#CD43EF"/>
<stop offset="0.5745" stop-color="#CD43EF"/>
<stop offset="0.8294" stop-color="#C62A97"/>
<stop offset="0.8472" stop-color="#C62A97"/>
<stop offset="0.8491" stop-color="#C72C95"/>
<stop offset="0.9231" stop-color="#E58658"/>
<stop offset="0.9751" stop-color="#F8BF31"/>
<stop offset="1" stop-color="#FFD522"/>
</linearGradient>
<linearGradient id="paint7_linear_1_10873" x1="130.226" y1="211.592" x2="945.03" y2="211.592" gradientUnits="userSpaceOnUse">
<stop stop-color="#FFD522"/>
<stop offset="0.0630095" stop-color="#FBCC30"/>
<stop offset="0.1817" stop-color="#EFB454"/>
<stop offset="0.3003" stop-color="#E2987F"/>
<stop offset="0.3384" stop-color="#E19485"/>
<stop offset="0.3876" stop-color="#DE8795"/>
<stop offset="0.4431" stop-color="#D973B0"/>
<stop offset="0.5026" stop-color="#D257D4"/>
<stop offset="0.5393" stop-color="#CD43EF"/>
<stop offset="0.5745" stop-color="#CD43EF"/>
<stop offset="0.8294" stop-color="#C62A97"/>
<stop offset="0.8472" stop-color="#C62A97"/>
<stop offset="0.8491" stop-color="#C72C95"/>
<stop offset="0.9231" stop-color="#E58658"/>
<stop offset="0.9751" stop-color="#F8BF31"/>
<stop offset="1" stop-color="#FFD522"/>
</linearGradient>
<linearGradient id="paint8_linear_1_10873" x1="129.824" y1="215.86" x2="944.87" y2="215.86" gradientUnits="userSpaceOnUse">
<stop stop-color="#FFD522"/>
<stop offset="0.0630095" stop-color="#FBCC30"/>
<stop offset="0.1817" stop-color="#EFB454"/>
<stop offset="0.3003" stop-color="#E2987F"/>
<stop offset="0.3384" stop-color="#E19485"/>
<stop offset="0.3876" stop-color="#DE8795"/>
<stop offset="0.4431" stop-color="#D973B0"/>
<stop offset="0.5026" stop-color="#D257D4"/>
<stop offset="0.5393" stop-color="#CD43EF"/>
<stop offset="0.5745" stop-color="#CD43EF"/>
<stop offset="0.8294" stop-color="#C62A97"/>
<stop offset="0.8472" stop-color="#C62A97"/>
<stop offset="0.8491" stop-color="#C72C95"/>
<stop offset="0.9231" stop-color="#E58658"/>
<stop offset="0.9751" stop-color="#F8BF31"/>
<stop offset="1" stop-color="#FFD522"/>
</linearGradient>
<linearGradient id="paint9_linear_1_10873" x1="129.519" y1="220.193" x2="944.64" y2="220.193" gradientUnits="userSpaceOnUse">
<stop stop-color="#FFD522"/>
<stop offset="0.0630095" stop-color="#FBCC30"/>
<stop offset="0.1817" stop-color="#EFB454"/>
<stop offset="0.3003" stop-color="#E2987F"/>
<stop offset="0.3384" stop-color="#E19485"/>
<stop offset="0.3876" stop-color="#DE8795"/>
<stop offset="0.4431" stop-color="#D973B0"/>
<stop offset="0.5026" stop-color="#D257D4"/>
<stop offset="0.5393" stop-color="#CD43EF"/>
<stop offset="0.5745" stop-color="#CD43EF"/>
<stop offset="0.8294" stop-color="#C62A97"/>
<stop offset="0.8472" stop-color="#C62A97"/>
<stop offset="0.8491" stop-color="#C72C95"/>
<stop offset="0.9231" stop-color="#E58658"/>
<stop offset="0.9751" stop-color="#F8BF31"/>
<stop offset="1" stop-color="#FFD522"/>
</linearGradient>
<linearGradient id="paint10_linear_1_10873" x1="129.156" y1="224.258" x2="944.6" y2="224.258" gradientUnits="userSpaceOnUse">
<stop stop-color="#FFD522"/>
<stop offset="0.0630095" stop-color="#FBCC30"/>
<stop offset="0.1817" stop-color="#EFB454"/>
<stop offset="0.3003" stop-color="#E2987F"/>
<stop offset="0.3384" stop-color="#E19485"/>
<stop offset="0.3876" stop-color="#DE8795"/>
<stop offset="0.4431" stop-color="#D973B0"/>
<stop offset="0.5026" stop-color="#D257D4"/>
<stop offset="0.5393" stop-color="#CD43EF"/>
<stop offset="0.5745" stop-color="#CD43EF"/>
<stop offset="0.8294" stop-color="#C62A97"/>
<stop offset="0.8472" stop-color="#C62A97"/>
<stop offset="0.8491" stop-color="#C72C95"/>
<stop offset="0.9231" stop-color="#E58658"/>
<stop offset="0.9751" stop-color="#F8BF31"/>
<stop offset="1" stop-color="#FFD522"/>
</linearGradient>
<linearGradient id="paint11_linear_1_10873" x1="128.926" y1="228.234" x2="944.61" y2="228.234" gradientUnits="userSpaceOnUse">
<stop stop-color="#FFD522"/>
<stop offset="0.0630095" stop-color="#FBCC30"/>
<stop offset="0.1817" stop-color="#EFB454"/>
<stop offset="0.3003" stop-color="#E2987F"/>
<stop offset="0.3384" stop-color="#E19485"/>
<stop offset="0.3876" stop-color="#DE8795"/>
<stop offset="0.4431" stop-color="#D973B0"/>
<stop offset="0.5026" stop-color="#D257D4"/>
<stop offset="0.5393" stop-color="#CD43EF"/>
<stop offset="0.5745" stop-color="#CD43EF"/>
<stop offset="0.8294" stop-color="#C62A97"/>
<stop offset="0.8472" stop-color="#C62A97"/>
<stop offset="0.8491" stop-color="#C72C95"/>
<stop offset="0.9231" stop-color="#E58658"/>
<stop offset="0.9751" stop-color="#F8BF31"/>
<stop offset="1" stop-color="#FFD522"/>
</linearGradient>
<linearGradient id="paint12_linear_1_10873" x1="128.418" y1="232.235" x2="944.11" y2="232.235" gradientUnits="userSpaceOnUse">
<stop stop-color="#FFD522"/>
<stop offset="0.0630095" stop-color="#FBCC30"/>
<stop offset="0.1817" stop-color="#EFB454"/>
<stop offset="0.3003" stop-color="#E2987F"/>
<stop offset="0.3384" stop-color="#E19485"/>
<stop offset="0.3876" stop-color="#DE8795"/>
<stop offset="0.4431" stop-color="#D973B0"/>
<stop offset="0.5026" stop-color="#D257D4"/>
<stop offset="0.5393" stop-color="#CD43EF"/>
<stop offset="0.5745" stop-color="#CD43EF"/>
<stop offset="0.8294" stop-color="#C62A97"/>
<stop offset="0.8472" stop-color="#C62A97"/>
<stop offset="0.8491" stop-color="#C72C95"/>
<stop offset="0.9231" stop-color="#E58658"/>
<stop offset="0.9751" stop-color="#F8BF31"/>
<stop offset="1" stop-color="#FFD522"/>
</linearGradient>
<linearGradient id="paint13_linear_1_10873" x1="128.227" y1="236.358" x2="944.24" y2="236.358" gradientUnits="userSpaceOnUse">
<stop stop-color="#FFD522"/>
<stop offset="0.0630095" stop-color="#FBCC30"/>
<stop offset="0.1817" stop-color="#EFB454"/>
<stop offset="0.3003" stop-color="#E2987F"/>
<stop offset="0.3384" stop-color="#E19485"/>
<stop offset="0.3876" stop-color="#DE8795"/>
<stop offset="0.4431" stop-color="#D973B0"/>
<stop offset="0.5026" stop-color="#D257D4"/>
<stop offset="0.5393" stop-color="#CD43EF"/>
<stop offset="0.5745" stop-color="#CD43EF"/>
<stop offset="0.8294" stop-color="#C62A97"/>
<stop offset="0.8472" stop-color="#C62A97"/>
<stop offset="0.8491" stop-color="#C72C95"/>
<stop offset="0.9231" stop-color="#E58658"/>
<stop offset="0.9751" stop-color="#F8BF31"/>
<stop offset="1" stop-color="#FFD522"/>
</linearGradient>
<linearGradient id="paint14_linear_1_10873" x1="127.824" y1="240.297" x2="944.08" y2="240.297" gradientUnits="userSpaceOnUse">
<stop stop-color="#FFD522"/>
<stop offset="0.0630095" stop-color="#FBCC30"/>
<stop offset="0.1817" stop-color="#EFB454"/>
<stop offset="0.3003" stop-color="#E2987F"/>
<stop offset="0.3384" stop-color="#E19485"/>
<stop offset="0.3876" stop-color="#DE8795"/>
<stop offset="0.4431" stop-color="#D973B0"/>
<stop offset="0.5026" stop-color="#D257D4"/>
<stop offset="0.5393" stop-color="#CD43EF"/>
<stop offset="0.5745" stop-color="#CD43EF"/>
<stop offset="0.8294" stop-color="#C62A97"/>
<stop offset="0.8472" stop-color="#C62A97"/>
<stop offset="0.8491" stop-color="#C72C95"/>
<stop offset="0.9231" stop-color="#E58658"/>
<stop offset="0.9751" stop-color="#F8BF31"/>
<stop offset="1" stop-color="#FFD522"/>
</linearGradient>
<linearGradient id="paint15_linear_1_10873" x1="127.61" y1="244.36" x2="944.1" y2="244.36" gradientUnits="userSpaceOnUse">
<stop stop-color="#FFD522"/>
<stop offset="0.0630095" stop-color="#FBCC30"/>
<stop offset="0.1817" stop-color="#EFB454"/>
<stop offset="0.3003" stop-color="#E2987F"/>
<stop offset="0.3384" stop-color="#E19485"/>
<stop offset="0.3876" stop-color="#DE8795"/>
<stop offset="0.4431" stop-color="#D973B0"/>
<stop offset="0.5026" stop-color="#D257D4"/>
<stop offset="0.5393" stop-color="#CD43EF"/>
<stop offset="0.5745" stop-color="#CD43EF"/>
<stop offset="0.8294" stop-color="#C62A97"/>
<stop offset="0.8472" stop-color="#C62A97"/>
<stop offset="0.8491" stop-color="#C72C95"/>
<stop offset="0.9231" stop-color="#E58658"/>
<stop offset="0.9751" stop-color="#F8BF31"/>
<stop offset="1" stop-color="#FFD522"/>
</linearGradient>
<linearGradient id="paint16_linear_1_10873" x1="127.129" y1="248.193" x2="943.7" y2="248.193" gradientUnits="userSpaceOnUse">
<stop stop-color="#FFD522"/>
<stop offset="0.0630095" stop-color="#FBCC30"/>
<stop offset="0.1817" stop-color="#EFB454"/>
<stop offset="0.3003" stop-color="#E2987F"/>
<stop offset="0.3384" stop-color="#E19485"/>
<stop offset="0.3876" stop-color="#DE8795"/>
<stop offset="0.4431" stop-color="#D973B0"/>
<stop offset="0.5026" stop-color="#D257D4"/>
<stop offset="0.5393" stop-color="#CD43EF"/>
<stop offset="0.5745" stop-color="#CD43EF"/>
<stop offset="0.8294" stop-color="#C62A97"/>
<stop offset="0.8472" stop-color="#C62A97"/>
<stop offset="0.8491" stop-color="#C72C95"/>
<stop offset="0.9231" stop-color="#E58658"/>
<stop offset="0.9751" stop-color="#F8BF31"/>
<stop offset="1" stop-color="#FFD522"/>
</linearGradient>
<linearGradient id="paint17_linear_1_10873" x1="126.899" y1="252.526" x2="943.72" y2="252.526" gradientUnits="userSpaceOnUse">
<stop stop-color="#FFD522"/>
<stop offset="0.0630095" stop-color="#FBCC30"/>
<stop offset="0.1817" stop-color="#EFB454"/>
<stop offset="0.3003" stop-color="#E2987F"/>
<stop offset="0.3384" stop-color="#E19485"/>
<stop offset="0.3876" stop-color="#DE8795"/>
<stop offset="0.4431" stop-color="#D973B0"/>
<stop offset="0.5026" stop-color="#D257D4"/>
<stop offset="0.5393" stop-color="#CD43EF"/>
<stop offset="0.5745" stop-color="#CD43EF"/>
<stop offset="0.8294" stop-color="#C62A97"/>
<stop offset="0.8472" stop-color="#C62A97"/>
<stop offset="0.8491" stop-color="#C72C95"/>
<stop offset="0.9231" stop-color="#E58658"/>
<stop offset="0.9751" stop-color="#F8BF31"/>
<stop offset="1" stop-color="#FFD522"/>
</linearGradient>
<linearGradient id="paint18_linear_1_10873" x1="126.497" y1="256.431" x2="943.56" y2="256.431" gradientUnits="userSpaceOnUse">
<stop stop-color="#FFD522"/>
<stop offset="0.0630095" stop-color="#FBCC30"/>
<stop offset="0.1817" stop-color="#EFB454"/>
<stop offset="0.3003" stop-color="#E2987F"/>
<stop offset="0.3384" stop-color="#E19485"/>
<stop offset="0.3876" stop-color="#DE8795"/>
<stop offset="0.4431" stop-color="#D973B0"/>
<stop offset="0.5026" stop-color="#D257D4"/>
<stop offset="0.5393" stop-color="#CD43EF"/>
<stop offset="0.5745" stop-color="#CD43EF"/>
<stop offset="0.8294" stop-color="#C62A97"/>
<stop offset="0.8472" stop-color="#C62A97"/>
<stop offset="0.8491" stop-color="#C72C95"/>
<stop offset="0.9231" stop-color="#E58658"/>
<stop offset="0.9751" stop-color="#F8BF31"/>
<stop offset="1" stop-color="#FFD522"/>
</linearGradient>
<linearGradient id="paint19_linear_1_10873" x1="126.056" y1="260.21" x2="943.28" y2="260.21" gradientUnits="userSpaceOnUse">
<stop stop-color="#FFD522"/>
<stop offset="0.0630095" stop-color="#FBCC30"/>
<stop offset="0.1817" stop-color="#EFB454"/>
<stop offset="0.3003" stop-color="#E2987F"/>
<stop offset="0.3384" stop-color="#E19485"/>
<stop offset="0.3876" stop-color="#DE8795"/>
<stop offset="0.4431" stop-color="#D973B0"/>
<stop offset="0.5026" stop-color="#D257D4"/>
<stop offset="0.5393" stop-color="#CD43EF"/>
<stop offset="0.5745" stop-color="#CD43EF"/>
<stop offset="0.8294" stop-color="#C62A97"/>
<stop offset="0.8472" stop-color="#C62A97"/>
<stop offset="0.8491" stop-color="#C72C95"/>
<stop offset="0.9231" stop-color="#E58658"/>
<stop offset="0.9751" stop-color="#F8BF31"/>
<stop offset="1" stop-color="#FFD522"/>
</linearGradient>
<linearGradient id="paint20_linear_1_10873" x1="125.755" y1="264.269" x2="943.06" y2="264.269" gradientUnits="userSpaceOnUse">
<stop stop-color="#FFD522"/>
<stop offset="0.0630095" stop-color="#FBCC30"/>
<stop offset="0.1817" stop-color="#EFB454"/>
<stop offset="0.3003" stop-color="#E2987F"/>
<stop offset="0.3384" stop-color="#E19485"/>
<stop offset="0.3876" stop-color="#DE8795"/>
<stop offset="0.4431" stop-color="#D973B0"/>
<stop offset="0.5026" stop-color="#D257D4"/>
<stop offset="0.5393" stop-color="#CD43EF"/>
<stop offset="0.5745" stop-color="#CD43EF"/>
<stop offset="0.8294" stop-color="#C62A97"/>
<stop offset="0.8472" stop-color="#C62A97"/>
<stop offset="0.8491" stop-color="#C72C95"/>
<stop offset="0.9231" stop-color="#E58658"/>
<stop offset="0.9751" stop-color="#F8BF31"/>
<stop offset="1" stop-color="#FFD522"/>
</linearGradient>
<linearGradient id="paint21_linear_1_10873" x1="125.435" y1="268" x2="943.14" y2="268" gradientUnits="userSpaceOnUse">
<stop stop-color="#FFD522"/>
<stop offset="0.0630095" stop-color="#FBCC30"/>
<stop offset="0.1817" stop-color="#EFB454"/>
<stop offset="0.3003" stop-color="#E2987F"/>
<stop offset="0.3384" stop-color="#E19485"/>
<stop offset="0.3876" stop-color="#DE8795"/>
<stop offset="0.4431" stop-color="#D973B0"/>
<stop offset="0.5026" stop-color="#D257D4"/>
<stop offset="0.5393" stop-color="#CD43EF"/>
<stop offset="0.5745" stop-color="#CD43EF"/>
<stop offset="0.8294" stop-color="#C62A97"/>
<stop offset="0.8472" stop-color="#C62A97"/>
<stop offset="0.8491" stop-color="#C72C95"/>
<stop offset="0.9231" stop-color="#E58658"/>
<stop offset="0.9751" stop-color="#F8BF31"/>
<stop offset="1" stop-color="#FFD522"/>
</linearGradient>
<linearGradient id="paint22_linear_1_10873" x1="125.209" y1="272.207" x2="943.15" y2="272.207" gradientUnits="userSpaceOnUse">
<stop stop-color="#FFD522"/>
<stop offset="0.0630095" stop-color="#FBCC30"/>
<stop offset="0.1817" stop-color="#EFB454"/>
<stop offset="0.3003" stop-color="#E2987F"/>
<stop offset="0.3384" stop-color="#E19485"/>
<stop offset="0.3876" stop-color="#DE8795"/>
<stop offset="0.4431" stop-color="#D973B0"/>
<stop offset="0.5026" stop-color="#D257D4"/>
<stop offset="0.5393" stop-color="#CD43EF"/>
<stop offset="0.5745" stop-color="#CD43EF"/>
<stop offset="0.8294" stop-color="#C62A97"/>
<stop offset="0.8472" stop-color="#C62A97"/>
<stop offset="0.8491" stop-color="#C72C95"/>
<stop offset="0.9231" stop-color="#E58658"/>
<stop offset="0.9751" stop-color="#F8BF31"/>
<stop offset="1" stop-color="#FFD522"/>
</linearGradient>
<linearGradient id="paint23_linear_1_10873" x1="124.775" y1="275.907" x2="942.88" y2="275.907" gradientUnits="userSpaceOnUse">
<stop stop-color="#FFD522"/>
<stop offset="0.0630095" stop-color="#FBCC30"/>
<stop offset="0.1817" stop-color="#EFB454"/>
<stop offset="0.3003" stop-color="#E2987F"/>
<stop offset="0.3384" stop-color="#E19485"/>
<stop offset="0.3876" stop-color="#DE8795"/>
<stop offset="0.4431" stop-color="#D973B0"/>
<stop offset="0.5026" stop-color="#D257D4"/>
<stop offset="0.5393" stop-color="#CD43EF"/>
<stop offset="0.5745" stop-color="#CD43EF"/>
<stop offset="0.8294" stop-color="#C62A97"/>
<stop offset="0.8472" stop-color="#C62A97"/>
<stop offset="0.8491" stop-color="#C72C95"/>
<stop offset="0.9231" stop-color="#E58658"/>
<stop offset="0.9751" stop-color="#F8BF31"/>
<stop offset="1" stop-color="#FFD522"/>
</linearGradient>
<linearGradient id="paint24_linear_1_10873" x1="124.545" y1="280.055" x2="942.89" y2="280.055" gradientUnits="userSpaceOnUse">
<stop stop-color="#FFD522"/>
<stop offset="0.0630095" stop-color="#FBCC30"/>
<stop offset="0.1817" stop-color="#EFB454"/>
<stop offset="0.3003" stop-color="#E2987F"/>
<stop offset="0.3384" stop-color="#E19485"/>
<stop offset="0.3876" stop-color="#DE8795"/>
<stop offset="0.4431" stop-color="#D973B0"/>
<stop offset="0.5026" stop-color="#D257D4"/>
<stop offset="0.5393" stop-color="#CD43EF"/>
<stop offset="0.5745" stop-color="#CD43EF"/>
<stop offset="0.8294" stop-color="#C62A97"/>
<stop offset="0.8472" stop-color="#C62A97"/>
<stop offset="0.8491" stop-color="#C72C95"/>
<stop offset="0.9231" stop-color="#E58658"/>
<stop offset="0.9751" stop-color="#F8BF31"/>
<stop offset="1" stop-color="#FFD522"/>
</linearGradient>
<linearGradient id="paint25_linear_1_10873" x1="124.068" y1="283.796" x2="942.5" y2="283.796" gradientUnits="userSpaceOnUse">
<stop stop-color="#FFD522"/>
<stop offset="0.0630095" stop-color="#FBCC30"/>
<stop offset="0.1817" stop-color="#EFB454"/>
<stop offset="0.3003" stop-color="#E2987F"/>
<stop offset="0.3384" stop-color="#E19485"/>
<stop offset="0.3876" stop-color="#DE8795"/>
<stop offset="0.4431" stop-color="#D973B0"/>
<stop offset="0.5026" stop-color="#D257D4"/>
<stop offset="0.5393" stop-color="#CD43EF"/>
<stop offset="0.5745" stop-color="#CD43EF"/>
<stop offset="0.8294" stop-color="#C62A97"/>
<stop offset="0.8472" stop-color="#C62A97"/>
<stop offset="0.8491" stop-color="#C72C95"/>
<stop offset="0.9231" stop-color="#E58658"/>
<stop offset="0.9751" stop-color="#F8BF31"/>
<stop offset="1" stop-color="#FFD522"/>
</linearGradient>
<clipPath id="clip0_1_10873">
<rect width="1746" height="534" fill="white" transform="translate(-273)"/>
</clipPath>
<clipPath id="clip1_1_10873">
<rect width="1746" height="534" fill="white" transform="translate(-273)"/>
</clipPath>
<clipPath id="clip2_1_10873">
<rect width="1746" height="534" fill="white" transform="translate(-273)"/>
</clipPath>
</defs>
</svg>
